<svg xmlns="http://www.w3.org/2000/svg" xmlns:xlink="http://www.w3.org/1999/xlink" width="500" zoomAndPan="magnify" viewBox="0 0 375 225" height="300" preserveAspectRatio="xMidYMid meet" version="1.0"><defs><g/><clipPath id="ae6760fa09"><path d="M 109.449219 104 L 136.449219 104 L 136.449219 127.3125 L 109.449219 127.3125 Z M 109.449219 104 " clip-rule="nonzero"/></clipPath><clipPath id="1ea0184d7d"><path d="M 119 98.0625 L 135 98.0625 L 135 113 L 119 113 Z M 119 98.0625 " clip-rule="nonzero"/></clipPath><clipPath id="279d219281"><path d="M 109.449219 105 L 134 105 L 134 127.3125 L 109.449219 127.3125 Z M 109.449219 105 " clip-rule="nonzero"/></clipPath><clipPath id="8a4e0eec6d"><path d="M 118 98.0625 L 136.449219 98.0625 L 136.449219 127 L 118 127 Z M 118 98.0625 " clip-rule="nonzero"/></clipPath></defs><rect x="-37.5" width="450" fill="#ffffff" y="-22.5" height="270" fill-opacity="1"/><rect x="-37.5" width="450" fill="#ffffff" y="-22.5" height="270" fill-opacity="1"/><g fill="#000000" fill-opacity="1"><g transform="translate(136.149092, 124.348469)"><g><path d="M 1.480469 -48.90625 C 5.730469 -48.90625 6.027344 -45.398438 6.027344 -35.667969 L 6.027344 -13.734375 C 6.027344 -3.753906 13.632812 0.988281 22.722656 0.988281 C 31.8125 0.988281 39.222656 -3.851562 39.222656 -13.734375 L 39.222656 -35.667969 C 39.222656 -45.398438 39.519531 -48.90625 43.769531 -48.90625 L 43.769531 -49.402344 L 30.429688 -49.402344 L 30.429688 -48.90625 C 34.679688 -48.90625 34.976562 -45.398438 34.976562 -35.667969 L 34.976562 -13.734375 C 34.976562 -4.199219 29.738281 0.492188 22.722656 0.492188 C 15.710938 0.492188 10.277344 -4.148438 10.277344 -13.734375 L 10.277344 -35.667969 C 10.277344 -45.398438 10.570312 -48.90625 14.820312 -48.90625 L 14.820312 -49.402344 L 1.480469 -49.402344 Z M 1.480469 -48.90625 "/></g></g></g><g fill="#000000" fill-opacity="1"><g transform="translate(172.650045, 124.348469)"><g><path d="M 0 -48.90625 C 3.011719 -48.90625 4.59375 -46.191406 6.769531 -40.753906 L 22.578125 0.988281 L 23.070312 0.988281 L 33.097656 -25.492188 L 43.128906 0.988281 L 43.621094 0.988281 L 59.429688 -40.753906 C 61.503906 -46.238281 63.183594 -48.90625 66.199219 -48.90625 L 66.199219 -49.402344 L 52.21875 -49.402344 L 52.21875 -48.90625 C 59.183594 -48.90625 59.082031 -43.71875 57.800781 -39.769531 C 53.996094 -28.058594 49.351562 -16.402344 45.25 -4.742188 L 35.222656 -31.121094 L 38.878906 -40.753906 C 40.953125 -46.238281 42.632812 -48.90625 45.648438 -48.90625 L 45.648438 -49.402344 L 20.550781 -49.402344 L 20.550781 -48.90625 C 23.5625 -48.90625 25.144531 -46.191406 27.320312 -40.753906 L 32.703125 -26.578125 C 30.035156 -19.265625 27.269531 -12.003906 24.699219 -4.742188 L 11.363281 -39.914062 C 9.484375 -44.90625 9.238281 -48.90625 16.203125 -48.90625 L 16.203125 -49.402344 L 0 -49.402344 Z M 34.085938 -48.859375 C 39.816406 -48.859375 38.382812 -43.175781 37.25 -39.769531 C 36.410156 -37.296875 35.617188 -34.828125 34.777344 -32.40625 L 31.914062 -39.914062 C 30.28125 -44.164062 29.34375 -48.859375 34.085938 -48.859375 Z M 34.085938 -48.859375 "/></g></g></g><g fill="#000000" fill-opacity="1"><g transform="translate(129.48972, 141.268027)"><g><path d="M 4.28125 0.046875 C 3.320312 0.046875 2.578125 -0.226562 2.046875 -0.78125 C 1.515625 -1.332031 1.25 -2.140625 1.25 -3.203125 L 1.25 -7.5625 L 1.796875 -7.5625 L 1.796875 -3.234375 C 1.796875 -2.296875 2.007812 -1.597656 2.4375 -1.140625 C 2.863281 -0.679688 3.476562 -0.453125 4.28125 -0.453125 C 5.082031 -0.453125 5.695312 -0.679688 6.125 -1.140625 C 6.550781 -1.597656 6.765625 -2.296875 6.765625 -3.234375 L 6.765625 -7.5625 L 7.3125 -7.5625 L 7.3125 -3.203125 C 7.3125 -2.140625 7.046875 -1.332031 6.515625 -0.78125 C 5.984375 -0.226562 5.238281 0.046875 4.28125 0.046875 Z M 4.28125 0.046875 "/></g></g></g><g fill="#000000" fill-opacity="1"><g transform="translate(141.666621, 141.268027)"><g><path d="M 6.5625 0 L 4.765625 -2.53125 C 4.492188 -2.488281 4.25 -2.46875 4.03125 -2.46875 L 1.875 -2.46875 L 1.875 0 L 1.3125 0 L 1.3125 -7.5625 L 4.03125 -7.5625 C 4.976562 -7.5625 5.722656 -7.332031 6.265625 -6.875 C 6.804688 -6.425781 7.078125 -5.804688 7.078125 -5.015625 C 7.078125 -4.410156 6.921875 -3.90625 6.609375 -3.5 C 6.304688 -3.09375 5.867188 -2.804688 5.296875 -2.640625 L 7.1875 0 Z M 4.03125 -2.953125 C 4.832031 -2.953125 5.445312 -3.128906 5.875 -3.484375 C 6.300781 -3.847656 6.515625 -4.359375 6.515625 -5.015625 C 6.515625 -5.671875 6.300781 -6.175781 5.875 -6.53125 C 5.445312 -6.882812 4.832031 -7.0625 4.03125 -7.0625 L 1.875 -7.0625 L 1.875 -2.953125 Z M 4.03125 -2.953125 "/></g></g></g><g fill="#000000" fill-opacity="1"><g transform="translate(153.05563, 141.268027)"><g><path d="M 2.765625 -7.0625 L 0.046875 -7.0625 L 0.046875 -7.5625 L 6.03125 -7.5625 L 6.03125 -7.0625 L 3.3125 -7.0625 L 3.3125 0 L 2.765625 0 Z M 2.765625 -7.0625 "/></g></g></g><g fill="#000000" fill-opacity="1"><g transform="translate(162.750135, 141.268027)"><g><path d="M 4.28125 0.046875 C 3.320312 0.046875 2.578125 -0.226562 2.046875 -0.78125 C 1.515625 -1.332031 1.25 -2.140625 1.25 -3.203125 L 1.25 -7.5625 L 1.796875 -7.5625 L 1.796875 -3.234375 C 1.796875 -2.296875 2.007812 -1.597656 2.4375 -1.140625 C 2.863281 -0.679688 3.476562 -0.453125 4.28125 -0.453125 C 5.082031 -0.453125 5.695312 -0.679688 6.125 -1.140625 C 6.550781 -1.597656 6.765625 -2.296875 6.765625 -3.234375 L 6.765625 -7.5625 L 7.3125 -7.5625 L 7.3125 -3.203125 C 7.3125 -2.140625 7.046875 -1.332031 6.515625 -0.78125 C 5.984375 -0.226562 5.238281 0.046875 4.28125 0.046875 Z M 4.28125 0.046875 "/></g></g></g><g fill="#000000" fill-opacity="1"><g transform="translate(174.927037, 141.268027)"><g><path d="M 5.8125 -3.890625 C 6.351562 -3.796875 6.765625 -3.585938 7.046875 -3.265625 C 7.328125 -2.941406 7.46875 -2.519531 7.46875 -2 C 7.46875 -1.351562 7.234375 -0.859375 6.765625 -0.515625 C 6.296875 -0.171875 5.601562 0 4.6875 0 L 1.3125 0 L 1.3125 -7.5625 L 4.46875 -7.5625 C 5.289062 -7.5625 5.929688 -7.390625 6.390625 -7.046875 C 6.847656 -6.710938 7.078125 -6.238281 7.078125 -5.625 C 7.078125 -5.195312 6.960938 -4.832031 6.734375 -4.53125 C 6.503906 -4.238281 6.195312 -4.023438 5.8125 -3.890625 Z M 1.875 -7.078125 L 1.875 -4.078125 L 4.453125 -4.078125 C 5.109375 -4.078125 5.613281 -4.203125 5.96875 -4.453125 C 6.332031 -4.710938 6.515625 -5.085938 6.515625 -5.578125 C 6.515625 -6.066406 6.332031 -6.4375 5.96875 -6.6875 C 5.613281 -6.945312 5.109375 -7.078125 4.453125 -7.078125 Z M 4.6875 -0.46875 C 5.414062 -0.46875 5.96875 -0.59375 6.34375 -0.84375 C 6.726562 -1.101562 6.921875 -1.503906 6.921875 -2.046875 C 6.921875 -2.578125 6.726562 -2.96875 6.34375 -3.21875 C 5.96875 -3.46875 5.414062 -3.59375 4.6875 -3.59375 L 1.875 -3.59375 L 1.875 -0.46875 Z M 4.6875 -0.46875 "/></g></g></g><g fill="#000000" fill-opacity="1"><g transform="translate(186.661419, 141.268027)"><g><path d="M 1.3125 -7.5625 L 1.875 -7.5625 L 1.875 0 L 1.3125 0 Z M 1.3125 -7.5625 "/></g></g></g><g fill="#000000" fill-opacity="1"><g transform="translate(193.463386, 141.268027)"><g><path d="M 6 -2.125 L 1.609375 -2.125 L 0.640625 0 L 0.046875 0 L 3.53125 -7.5625 L 4.078125 -7.5625 L 7.5625 0 L 6.96875 0 Z M 5.78125 -2.59375 L 3.796875 -6.953125 L 1.828125 -2.59375 Z M 5.78125 -2.59375 "/></g></g></g><g fill="#000000" fill-opacity="1"><g transform="translate(204.690498, 141.268027)"><g/></g></g><g fill="#000000" fill-opacity="1"><g transform="translate(211.082332, 141.268027)"><g><path d="M 11.421875 -7.5625 L 8.859375 0 L 8.28125 0 L 5.9375 -6.78125 L 3.578125 0 L 3 0 L 0.4375 -7.5625 L 1.015625 -7.5625 L 3.3125 -0.75 L 5.671875 -7.5625 L 6.203125 -7.5625 L 8.5625 -0.75 L 10.890625 -7.5625 Z M 11.421875 -7.5625 "/></g></g></g><g fill="#000000" fill-opacity="1"><g transform="translate(226.551098, 141.268027)"><g><path d="M 6.53125 -0.5 L 6.53125 0 L 1.3125 0 L 1.3125 -7.5625 L 6.375 -7.5625 L 6.375 -7.0625 L 1.875 -7.0625 L 1.875 -4.078125 L 5.890625 -4.078125 L 5.890625 -3.59375 L 1.875 -3.59375 L 1.875 -0.5 Z M 6.53125 -0.5 "/></g></g></g><g fill="#000000" fill-opacity="1"><g transform="translate(237.38966, 141.268027)"><g><path d="M 5.8125 -3.890625 C 6.351562 -3.796875 6.765625 -3.585938 7.046875 -3.265625 C 7.328125 -2.941406 7.46875 -2.519531 7.46875 -2 C 7.46875 -1.351562 7.234375 -0.859375 6.765625 -0.515625 C 6.296875 -0.171875 5.601562 0 4.6875 0 L 1.3125 0 L 1.3125 -7.5625 L 4.46875 -7.5625 C 5.289062 -7.5625 5.929688 -7.390625 6.390625 -7.046875 C 6.847656 -6.710938 7.078125 -6.238281 7.078125 -5.625 C 7.078125 -5.195312 6.960938 -4.832031 6.734375 -4.53125 C 6.503906 -4.238281 6.195312 -4.023438 5.8125 -3.890625 Z M 1.875 -7.078125 L 1.875 -4.078125 L 4.453125 -4.078125 C 5.109375 -4.078125 5.613281 -4.203125 5.96875 -4.453125 C 6.332031 -4.710938 6.515625 -5.085938 6.515625 -5.578125 C 6.515625 -6.066406 6.332031 -6.4375 5.96875 -6.6875 C 5.613281 -6.945312 5.109375 -7.078125 4.453125 -7.078125 Z M 4.6875 -0.46875 C 5.414062 -0.46875 5.96875 -0.59375 6.34375 -0.84375 C 6.726562 -1.101562 6.921875 -1.503906 6.921875 -2.046875 C 6.921875 -2.578125 6.726562 -2.96875 6.34375 -3.21875 C 5.96875 -3.46875 5.414062 -3.59375 4.6875 -3.59375 L 1.875 -3.59375 L 1.875 -0.46875 Z M 4.6875 -0.46875 "/></g></g></g><path stroke-linecap="butt" transform="matrix(0.755608, 0, 0, 0.75, 88.474758, 137.303018)" fill="none" stroke-linejoin="miter" d="M 0.00238826 0.502226 L 39.710683 0.502226 " stroke="#000000" stroke-width="1" stroke-opacity="1" stroke-miterlimit="4"/><path stroke-linecap="butt" transform="matrix(0.755608, 0, 0, 0.75, 256.741132, 137.078047)" fill="none" stroke-linejoin="miter" d="M 0.00139728 0.500104 L 39.709692 0.500104 " stroke="#000000" stroke-width="1" stroke-opacity="1" stroke-miterlimit="4"/><g clip-path="url(#ae6760fa09)"><path fill="#000000" d="M 133.007812 112.816406 L 124.398438 113.871094 L 121.960938 121.714844 L 125.375 127.316406 L 133.984375 126.257812 L 136.425781 118.417969 Z M 120.523438 104.699219 L 111.917969 105.757812 L 109.476562 113.601562 L 112.894531 119.203125 L 121.503906 118.148438 L 123.941406 110.304688 Z M 120.523438 104.699219 " fill-opacity="1" fill-rule="nonzero"/></g><g clip-path="url(#1ea0184d7d)"><path fill="#000000" d="M 130.804688 98.0625 L 122.195312 99.117188 L 119.757812 106.957031 L 123.167969 112.558594 L 131.777344 111.503906 L 134.210938 103.664062 Z M 130.804688 98.0625 " fill-opacity="1" fill-rule="nonzero"/></g><g clip-path="url(#279d219281)"><path fill="#a6a6a6" d="M 131.769531 111.503906 L 128.367188 105.90625 L 119.757812 106.960938 L 123.175781 112.5625 Z M 109.476562 113.597656 L 112.894531 119.199219 L 121.503906 118.144531 L 118.085938 112.539062 Z M 130.574219 120.652344 L 121.960938 121.710938 L 125.378906 127.3125 L 133.988281 126.257812 Z M 130.574219 120.652344 " fill-opacity="0.0392" fill-rule="nonzero"/></g><g clip-path="url(#8a4e0eec6d)"><path fill="#a6a6a6" d="M 119.800781 107.023438 L 118.085938 112.539062 L 121.492188 118.144531 L 123.230469 112.554688 L 123.167969 112.554688 Z M 133.007812 112.816406 L 130.566406 120.65625 L 133.976562 126.261719 L 136.414062 118.417969 Z M 134.210938 103.664062 L 130.804688 98.0625 L 128.363281 105.90625 L 131.769531 111.503906 Z M 134.210938 103.664062 " fill-opacity="0.098" fill-rule="nonzero"/></g></svg>