<svg xmlns="http://www.w3.org/2000/svg" xmlns:xlink="http://www.w3.org/1999/xlink" width="500" zoomAndPan="magnify" viewBox="0 0 375 374.999991" height="500" preserveAspectRatio="xMidYMid meet" version="1.0"><defs><filter x="0%" y="0%" width="100%" height="100%" id="fbc3138b70"><feColorMatrix values="0 0 0 0 1 0 0 0 0 1 0 0 0 0 1 0 0 0 1 0" color-interpolation-filters="sRGB"/></filter><g/><clipPath id="e52d0d379c"><path d="M 57.417969 174 L 102.417969 174 L 102.417969 211.4375 L 57.417969 211.4375 Z M 57.417969 174 " clip-rule="nonzero"/></clipPath><clipPath id="f4c0702faa"><path d="M 74 163.4375 L 99 163.4375 L 99 188 L 74 188 Z M 74 163.4375 " clip-rule="nonzero"/></clipPath><clipPath id="7585a187cf"><path d="M 57.417969 176 L 99 176 L 99 211.4375 L 57.417969 211.4375 Z M 57.417969 176 " clip-rule="nonzero"/></clipPath><mask id="1c77882df6"><g filter="url(#fbc3138b70)"><rect x="-37.5" width="450" fill="#000000" y="-37.499999" height="449.999989" fill-opacity="0.0392"/></g></mask><clipPath id="015abc7398"><path d="M 0.417969 0.160156 L 41.640625 0.160156 L 41.640625 35.4375 L 0.417969 35.4375 Z M 0.417969 0.160156 " clip-rule="nonzero"/></clipPath><clipPath id="2032c3afdb"><rect x="0" width="42" y="0" height="36"/></clipPath><clipPath id="802be168b3"><path d="M 71 163.4375 L 102.417969 163.4375 L 102.417969 210 L 71 210 Z M 71 163.4375 " clip-rule="nonzero"/></clipPath><mask id="701c5061d9"><g filter="url(#fbc3138b70)"><rect x="-37.5" width="450" fill="#000000" y="-37.499999" height="449.999989" fill-opacity="0.098"/></g></mask><clipPath id="80108c4abf"><path d="M 0.519531 0.4375 L 31.417969 0.4375 L 31.417969 47 L 0.519531 47 Z M 0.519531 0.4375 " clip-rule="nonzero"/></clipPath><clipPath id="17cf3a5afa"><rect x="0" width="32" y="0" height="47"/></clipPath></defs><rect x="-37.5" width="450" fill="#ffffff" y="-37.499999" height="449.999989" fill-opacity="1"/><rect x="-37.5" width="450" fill="#ffffff" y="-37.499999" height="449.999989" fill-opacity="1"/><rect x="-37.5" width="450" fill="#171717" y="-37.499999" height="449.999989" fill-opacity="1"/><g fill="#ffffff" fill-opacity="1"><g transform="translate(101.915176, 207.247405)"><g><path d="M 2.46875 -81.511719 C 9.550781 -81.511719 10.042969 -75.664062 10.042969 -59.445312 L 10.042969 -22.890625 C 10.042969 -6.257812 22.722656 1.648438 37.875 1.648438 C 53.023438 1.648438 65.375 -6.421875 65.375 -22.890625 L 65.375 -59.445312 C 65.375 -75.664062 65.867188 -81.511719 72.949219 -81.511719 L 72.949219 -82.335938 L 50.71875 -82.335938 L 50.71875 -81.511719 C 57.800781 -81.511719 58.292969 -75.664062 58.292969 -59.445312 L 58.292969 -22.890625 C 58.292969 -7 49.566406 0.824219 37.875 0.824219 C 26.183594 0.824219 17.125 -6.917969 17.125 -22.890625 L 17.125 -59.445312 C 17.125 -75.664062 17.621094 -81.511719 24.699219 -81.511719 L 24.699219 -82.335938 L 2.46875 -82.335938 Z M 2.46875 -81.511719 "/></g></g></g><g fill="#ffffff" fill-opacity="1"><g transform="translate(162.750093, 207.247405)"><g><path d="M 0 -81.511719 C 5.023438 -81.511719 7.65625 -76.984375 11.28125 -67.925781 L 37.628906 1.648438 L 38.449219 1.648438 L 55.164062 -42.484375 L 71.878906 1.648438 L 72.703125 1.648438 L 99.050781 -67.925781 C 102.507812 -77.066406 105.304688 -81.511719 110.328125 -81.511719 L 110.328125 -82.335938 L 87.027344 -82.335938 L 87.027344 -81.511719 C 98.636719 -81.511719 98.472656 -72.867188 96.332031 -66.28125 C 89.992188 -46.765625 82.253906 -27.335938 75.417969 -7.902344 L 58.703125 -51.871094 L 64.796875 -67.925781 C 68.253906 -77.066406 71.054688 -81.511719 76.078125 -81.511719 L 76.078125 -82.335938 L 34.25 -82.335938 L 34.25 -81.511719 C 39.273438 -81.511719 41.910156 -76.984375 45.53125 -67.925781 L 54.503906 -44.296875 C 50.058594 -32.109375 45.449219 -20.007812 41.167969 -7.902344 L 18.9375 -66.527344 C 15.808594 -74.84375 15.398438 -81.511719 27.007812 -81.511719 L 27.007812 -82.335938 L 0 -82.335938 Z M 56.8125 -81.429688 C 66.363281 -81.429688 63.972656 -71.960938 62.082031 -66.28125 C 60.679688 -62.164062 59.363281 -58.046875 57.964844 -54.011719 L 53.1875 -66.527344 C 50.472656 -73.609375 48.90625 -81.429688 56.8125 -81.429688 Z M 56.8125 -81.429688 "/></g></g></g><g fill="#ffffff" fill-opacity="1"><g transform="translate(117.939665, 233.213363)"><g><path d="M 5.15625 0.046875 C 4.03125 0.046875 3.15625 -0.28125 2.53125 -0.9375 C 1.90625 -1.59375 1.59375 -2.554688 1.59375 -3.828125 L 1.59375 -9.09375 L 2.03125 -9.09375 L 2.03125 -3.84375 C 2.03125 -2.6875 2.296875 -1.8125 2.828125 -1.21875 C 3.367188 -0.632812 4.144531 -0.34375 5.15625 -0.34375 C 6.164062 -0.34375 6.941406 -0.632812 7.484375 -1.21875 C 8.023438 -1.8125 8.296875 -2.6875 8.296875 -3.84375 L 8.296875 -9.09375 L 8.71875 -9.09375 L 8.71875 -3.828125 C 8.71875 -2.554688 8.40625 -1.59375 7.78125 -0.9375 C 7.15625 -0.28125 6.28125 0.046875 5.15625 0.046875 Z M 5.15625 0.046875 "/></g></g></g><g fill="#ffffff" fill-opacity="1"><g transform="translate(132.600569, 233.213363)"><g><path d="M 8.0625 0 L 5.8125 -3.140625 C 5.519531 -3.085938 5.191406 -3.0625 4.828125 -3.0625 L 2.109375 -3.0625 L 2.109375 0 L 1.65625 0 L 1.65625 -9.09375 L 4.828125 -9.09375 C 5.960938 -9.09375 6.847656 -8.828125 7.484375 -8.296875 C 8.117188 -7.765625 8.4375 -7.023438 8.4375 -6.078125 C 8.4375 -5.347656 8.25 -4.738281 7.875 -4.25 C 7.5 -3.757812 6.957031 -3.421875 6.25 -3.234375 L 8.578125 0 Z M 4.84375 -3.453125 C 5.863281 -3.453125 6.644531 -3.679688 7.1875 -4.140625 C 7.738281 -4.597656 8.015625 -5.242188 8.015625 -6.078125 C 8.015625 -6.910156 7.738281 -7.554688 7.1875 -8.015625 C 6.644531 -8.472656 5.863281 -8.703125 4.84375 -8.703125 L 2.109375 -8.703125 L 2.109375 -3.453125 Z M 4.84375 -3.453125 "/></g></g></g><g fill="#ffffff" fill-opacity="1"><g transform="translate(146.286781, 233.213363)"><g><path d="M 3.390625 -8.703125 L 0.046875 -8.703125 L 0.046875 -9.09375 L 7.15625 -9.09375 L 7.15625 -8.703125 L 3.828125 -8.703125 L 3.828125 0 L 3.390625 0 Z M 3.390625 -8.703125 "/></g></g></g><g fill="#ffffff" fill-opacity="1"><g transform="translate(157.854634, 233.213363)"><g><path d="M 5.15625 0.046875 C 4.03125 0.046875 3.15625 -0.28125 2.53125 -0.9375 C 1.90625 -1.59375 1.59375 -2.554688 1.59375 -3.828125 L 1.59375 -9.09375 L 2.03125 -9.09375 L 2.03125 -3.84375 C 2.03125 -2.6875 2.296875 -1.8125 2.828125 -1.21875 C 3.367188 -0.632812 4.144531 -0.34375 5.15625 -0.34375 C 6.164062 -0.34375 6.941406 -0.632812 7.484375 -1.21875 C 8.023438 -1.8125 8.296875 -2.6875 8.296875 -3.84375 L 8.296875 -9.09375 L 8.71875 -9.09375 L 8.71875 -3.828125 C 8.71875 -2.554688 8.40625 -1.59375 7.78125 -0.9375 C 7.15625 -0.28125 6.28125 0.046875 5.15625 0.046875 Z M 5.15625 0.046875 "/></g></g></g><g fill="#ffffff" fill-opacity="1"><g transform="translate(172.515538, 233.213363)"><g><path d="M 6.765625 -4.6875 C 7.484375 -4.570312 8.023438 -4.320312 8.390625 -3.9375 C 8.753906 -3.550781 8.9375 -3.035156 8.9375 -2.390625 C 8.9375 -1.609375 8.65625 -1.015625 8.09375 -0.609375 C 7.539062 -0.203125 6.710938 0 5.609375 0 L 1.65625 0 L 1.65625 -9.09375 L 5.359375 -9.09375 C 6.316406 -9.09375 7.066406 -8.894531 7.609375 -8.5 C 8.160156 -8.101562 8.4375 -7.53125 8.4375 -6.78125 C 8.4375 -6.238281 8.285156 -5.789062 7.984375 -5.4375 C 7.691406 -5.082031 7.285156 -4.832031 6.765625 -4.6875 Z M 2.109375 -8.703125 L 2.109375 -4.8125 L 5.375 -4.8125 C 6.207031 -4.8125 6.851562 -4.976562 7.3125 -5.3125 C 7.78125 -5.644531 8.015625 -6.128906 8.015625 -6.765625 C 8.015625 -7.390625 7.78125 -7.867188 7.3125 -8.203125 C 6.851562 -8.535156 6.207031 -8.703125 5.375 -8.703125 Z M 5.640625 -0.390625 C 6.585938 -0.390625 7.296875 -0.550781 7.765625 -0.875 C 8.242188 -1.207031 8.484375 -1.71875 8.484375 -2.40625 C 8.484375 -3.09375 8.242188 -3.601562 7.765625 -3.9375 C 7.296875 -4.269531 6.585938 -4.4375 5.640625 -4.4375 L 2.109375 -4.4375 L 2.109375 -0.390625 Z M 5.640625 -0.390625 "/></g></g></g><g fill="#ffffff" fill-opacity="1"><g transform="translate(186.617617, 233.213363)"><g><path d="M 1.65625 -9.09375 L 2.109375 -9.09375 L 2.109375 0 L 1.65625 0 Z M 1.65625 -9.09375 "/></g></g></g><g fill="#ffffff" fill-opacity="1"><g transform="translate(194.741531, 233.213363)"><g><path d="M 7.234375 -2.671875 L 1.796875 -2.671875 L 0.578125 0 L 0.09375 0 L 4.296875 -9.09375 L 4.734375 -9.09375 L 8.9375 0 L 8.46875 0 Z M 7.078125 -3.046875 L 4.53125 -8.59375 L 1.96875 -3.046875 Z M 7.078125 -3.046875 "/></g></g></g><g fill="#ffffff" fill-opacity="1"><g transform="translate(208.141824, 233.213363)"><g/></g></g><g fill="#ffffff" fill-opacity="1"><g transform="translate(215.78488, 233.213363)"><g><path d="M 13.578125 -9.09375 L 10.484375 0 L 10.03125 0 L 7.078125 -8.484375 L 4.125 0 L 3.671875 0 L 0.5625 -9.09375 L 1.03125 -9.09375 L 3.90625 -0.640625 L 6.859375 -9.09375 L 7.296875 -9.09375 L 10.25 -0.625 L 13.140625 -9.09375 Z M 13.578125 -9.09375 "/></g></g></g><g fill="#ffffff" fill-opacity="1"><g transform="translate(234.279607, 233.213363)"><g><path d="M 7.8125 -0.40625 L 7.8125 0 L 1.65625 0 L 1.65625 -9.09375 L 7.625 -9.09375 L 7.625 -8.703125 L 2.109375 -8.703125 L 2.109375 -4.828125 L 7.046875 -4.828125 L 7.046875 -4.421875 L 2.109375 -4.421875 L 2.109375 -0.40625 Z M 7.8125 -0.40625 "/></g></g></g><g fill="#ffffff" fill-opacity="1"><g transform="translate(247.316006, 233.213363)"><g><path d="M 6.765625 -4.6875 C 7.484375 -4.570312 8.023438 -4.320312 8.390625 -3.9375 C 8.753906 -3.550781 8.9375 -3.035156 8.9375 -2.390625 C 8.9375 -1.609375 8.65625 -1.015625 8.09375 -0.609375 C 7.539062 -0.203125 6.710938 0 5.609375 0 L 1.65625 0 L 1.65625 -9.09375 L 5.359375 -9.09375 C 6.316406 -9.09375 7.066406 -8.894531 7.609375 -8.5 C 8.160156 -8.101562 8.4375 -7.53125 8.4375 -6.78125 C 8.4375 -6.238281 8.285156 -5.789062 7.984375 -5.4375 C 7.691406 -5.082031 7.285156 -4.832031 6.765625 -4.6875 Z M 2.109375 -8.703125 L 2.109375 -4.8125 L 5.375 -4.8125 C 6.207031 -4.8125 6.851562 -4.976562 7.3125 -5.3125 C 7.78125 -5.644531 8.015625 -6.128906 8.015625 -6.765625 C 8.015625 -7.390625 7.78125 -7.867188 7.3125 -8.203125 C 6.851562 -8.535156 6.207031 -8.703125 5.375 -8.703125 Z M 5.640625 -0.390625 C 6.585938 -0.390625 7.296875 -0.550781 7.765625 -0.875 C 8.242188 -1.207031 8.484375 -1.71875 8.484375 -2.40625 C 8.484375 -3.09375 8.242188 -3.601562 7.765625 -3.9375 C 7.296875 -4.269531 6.585938 -4.4375 5.640625 -4.4375 L 2.109375 -4.4375 L 2.109375 -0.390625 Z M 5.640625 -0.390625 "/></g></g></g><path stroke-linecap="butt" transform="matrix(0.748052, 0, 0, 0.75, 22.457935, 229.088363)" fill="none" stroke-linejoin="miter" d="M -0.00120764 0.501974 L 66.18634 0.501974 " stroke="#ffffff" stroke-width="1" stroke-opacity="1" stroke-miterlimit="4"/><path stroke-linecap="butt" transform="matrix(0.748052, 0, 0, 0.75, 302.901899, 228.713363)" fill="none" stroke-linejoin="miter" d="M 0.000594532 0.501974 L 66.188142 0.501974 " stroke="#ffffff" stroke-width="1" stroke-opacity="1" stroke-miterlimit="4"/><g clip-path="url(#e52d0d379c)"><path fill="#ffffff" d="M 96.671875 187.644531 L 82.332031 189.378906 L 78.265625 202.25 L 83.960938 211.441406 L 98.296875 209.710938 L 102.363281 196.839844 Z M 75.875 174.328125 L 61.539062 176.0625 L 57.472656 188.9375 L 63.164062 198.128906 L 77.503906 196.394531 L 81.570312 183.523438 Z M 75.875 174.328125 " fill-opacity="1" fill-rule="nonzero"/></g><g clip-path="url(#f4c0702faa)"><path fill="#ffffff" d="M 93.003906 163.4375 L 78.664062 165.167969 L 74.601562 178.035156 L 80.28125 187.226562 L 94.621094 185.496094 L 98.679688 172.628906 Z M 93.003906 163.4375 " fill-opacity="1" fill-rule="nonzero"/></g><g clip-path="url(#7585a187cf)"><g mask="url(#1c77882df6)"><g transform="matrix(1, 0, 0, 1, 57, 176)"><g clip-path="url(#2032c3afdb)"><g clip-path="url(#015abc7398)"><path fill="#070707" d="M 37.609375 9.496094 L 31.941406 0.308594 L 17.601562 2.039062 L 23.292969 11.234375 Z M 0.472656 12.929688 L 6.164062 22.121094 L 20.503906 20.390625 L 14.8125 11.195312 Z M 35.613281 24.507812 L 21.273438 26.246094 L 26.964844 35.4375 L 41.304688 33.703125 Z M 35.613281 24.507812 " fill-opacity="1" fill-rule="nonzero"/></g></g></g></g></g><g clip-path="url(#802be168b3)"><g mask="url(#701c5061d9)"><g transform="matrix(1, 0, 0, 1, 71, 163)"><g clip-path="url(#17cf3a5afa)"><g clip-path="url(#80108c4abf)"><path fill="#070707" d="M 3.667969 15.140625 L 0.8125 24.195312 L 6.492188 33.390625 L 9.382812 24.21875 L 9.28125 24.21875 Z M 25.671875 24.644531 L 21.605469 37.515625 L 27.28125 46.710938 L 31.347656 33.839844 Z M 27.679688 9.628906 L 22.003906 0.4375 L 17.9375 13.308594 L 23.609375 22.496094 Z M 27.679688 9.628906 " fill-opacity="1" fill-rule="nonzero"/></g></g></g></g></g></svg>